<svg xmlns="http://www.w3.org/2000/svg" style="display: none;">
  <symbol id="shopping-cart" viewBox="0 0 24 24" fill="currentColor">
    <path d="M0 1h4.764l.545 2h18.078l-3.666 11H7.78l-.5 2H22v2H4.72l1.246-4.989L3.236 3H0V1Zm7.764 11h10.515l2.334-7H5.855l1.909 7ZM4 21a2 2 0 1 1 4 0a2 2 0 0 1-4 0Zm14 0a2 2 0 1 1 4 0a2 2 0 0 1-4 0Z"/>
  </symbol>
  <symbol id="sign-out" viewBox="0 0 24 24" fill="currentColor">
    <path d="M7.707,8.707,5.414,11H17a1,1,0,0,1,0,2H5.414l2.293,2.293a1,1,0,1,1-1.414,1.414l-4-4a1,1,0,0,1,0-1.414l4-4A1,1,0,1,1,7.707,8.707ZM21,1H13a1,1,0,0,0,0,2h7V21H13a1,1,0,0,0,0,2h8a1,1,0,0,0,1-1V2A1,1,0,0,0,21,1Z"/>
  </symbol>
  <symbol id="chevron" viewBox="0 0 24 24">
    <polygon points="6,9 12,15 18,9" fill="currentColor"/>
  </symbol>
  <symbol id="settings" viewBox="0 0 24 24">
    <path d="M14 5.28988H13C13 5.7323 13.2907 6.12213 13.7148 6.24833L14 5.28988ZM15.3302 5.84137L14.8538 6.72058C15.2429 6.93144 15.7243 6.86143 16.0373 6.54847L15.3302 5.84137ZM16.2426 4.92891L15.5355 4.2218V4.2218L16.2426 4.92891ZM17.6569 4.92891L16.9498 5.63601L16.9498 5.63602L17.6569 4.92891ZM19.0711 6.34312L19.7782 5.63602V5.63602L19.0711 6.34312ZM19.0711 7.75734L18.364 7.05023L19.0711 7.75734ZM18.1586 8.66978L17.4515 7.96268C17.1386 8.27563 17.0686 8.75709 17.2794 9.14621L18.1586 8.66978ZM18.7101 10L17.7517 10.2853C17.8779 10.7093 18.2677 11 18.7101 11V10ZM18.7101 14V13C18.2677 13 17.8779 13.2907 17.7517 13.7148L18.7101 14ZM18.1586 15.3302L17.2794 14.8538C17.0686 15.2429 17.1386 15.7244 17.4515 16.0373L18.1586 15.3302ZM19.0711 16.2427L19.7782 15.5356V15.5356L19.0711 16.2427ZM19.0711 17.6569L18.364 16.9498L18.364 16.9498L19.0711 17.6569ZM17.6569 19.0711L18.364 19.7782V19.7782L17.6569 19.0711ZM15.3302 18.1586L16.0373 17.4515C15.7243 17.1386 15.2429 17.0686 14.8538 17.2794L15.3302 18.1586ZM14 18.7101L13.7148 17.7517C13.2907 17.8779 13 18.2677 13 18.7101H14ZM10 18.7101H11C11 18.2677 10.7093 17.8779 10.2853 17.7517L10 18.7101ZM8.6698 18.1586L9.14623 17.2794C8.7571 17.0685 8.27565 17.1385 7.96269 17.4515L8.6698 18.1586ZM7.75736 19.071L7.05026 18.3639L7.05026 18.3639L7.75736 19.071ZM6.34315 19.071L5.63604 19.7782H5.63604L6.34315 19.071ZM4.92894 17.6568L4.22183 18.3639H4.22183L4.92894 17.6568ZM4.92894 16.2426L4.22183 15.5355H4.22183L4.92894 16.2426ZM5.84138 15.3302L6.54849 16.0373C6.86144 15.7243 6.93146 15.2429 6.7206 14.8537L5.84138 15.3302ZM5.28989 14L6.24835 13.7147C6.12215 13.2907 5.73231 13 5.28989 13V14ZM5.28989 10V11C5.73231 11 6.12215 10.7093 6.24835 10.2852L5.28989 10ZM5.84138 8.66982L6.7206 9.14625C6.93146 8.75712 6.86145 8.27567 6.54849 7.96272L5.84138 8.66982ZM4.92894 7.75738L4.22183 8.46449H4.22183L4.92894 7.75738ZM4.92894 6.34317L5.63605 7.05027H5.63605L4.92894 6.34317ZM6.34315 4.92895L7.05026 5.63606L7.05026 5.63606L6.34315 4.92895ZM7.75737 4.92895L8.46447 4.22185V4.22185L7.75737 4.92895ZM8.6698 5.84139L7.9627 6.54849C8.27565 6.86145 8.7571 6.93146 9.14623 6.7206L8.6698 5.84139ZM10 5.28988L10.2853 6.24833C10.7093 6.12213 11 5.7323 11 5.28988H10ZM11 2C9.89545 2 9.00002 2.89543 9.00002 4H11V4V2ZM13 2H11V4H13V2ZM15 4C15 2.89543 14.1046 2 13 2V4H15ZM15 5.28988V4H13V5.28988H15ZM15.8066 4.96215C15.3271 4.70233 14.8179 4.48994 14.2853 4.33143L13.7148 6.24833C14.1132 6.36691 14.4944 6.52587 14.8538 6.72058L15.8066 4.96215ZM15.5355 4.2218L14.6231 5.13426L16.0373 6.54847L16.9498 5.63602L15.5355 4.2218ZM18.364 4.2218C17.5829 3.44075 16.3166 3.44075 15.5355 4.2218L16.9498 5.63602V5.63601L18.364 4.2218ZM19.7782 5.63602L18.364 4.2218L16.9498 5.63602L18.364 7.05023L19.7782 5.63602ZM19.7782 8.46444C20.5592 7.68339 20.5592 6.41706 19.7782 5.63602L18.364 7.05023L18.364 7.05023L19.7782 8.46444ZM18.8657 9.37689L19.7782 8.46444L18.364 7.05023L17.4515 7.96268L18.8657 9.37689ZM19.6686 9.71475C19.5101 9.18211 19.2977 8.67285 19.0378 8.19335L17.2794 9.14621C17.4741 9.50555 17.6331 9.8868 17.7517 10.2853L19.6686 9.71475ZM18.7101 11H20V9H18.7101V11ZM20 11H22C22 9.89543 21.1046 9 20 9V11ZM20 11V13H22V11H20ZM20 13V15C21.1046 15 22 14.1046 22 13H20ZM20 13H18.7101V15H20V13ZM19.0378 15.8066C19.2977 15.3271 19.5101 14.8179 19.6686 14.2852L17.7517 13.7148C17.6331 14.1132 17.4741 14.4944 17.2794 14.8538L19.0378 15.8066ZM19.7782 15.5356L18.8657 14.6231L17.4515 16.0373L18.364 16.9498L19.7782 15.5356ZM19.7782 18.364C20.5592 17.5829 20.5592 16.3166 19.7782 15.5356L18.364 16.9498H18.364L19.7782 18.364ZM18.364 19.7782L19.7782 18.364L18.364 16.9498L16.9498 18.364L18.364 19.7782ZM15.5355 19.7782C16.3166 20.5592 17.5829 20.5592 18.364 19.7782L16.9498 18.364L15.5355 19.7782ZM14.6231 18.8657L15.5355 19.7782L16.9498 18.364L16.0373 17.4515L14.6231 18.8657ZM14.2853 19.6686C14.8179 19.5101 15.3271 19.2977 15.8066 19.0378L14.8538 17.2794C14.4944 17.4741 14.1132 17.6331 13.7148 17.7517L14.2853 19.6686ZM15 20V18.7101H13V20H15ZM13 22C14.1046 22 15 21.1046 15 20H13V22ZM11 22H13V20H11V22ZM9.00002 20C9.00002 21.1046 9.89545 22 11 22V20H9.00002ZM9.00002 18.7101V20H11V18.7101H9.00002ZM8.19337 19.0378C8.67287 19.2977 9.18213 19.5101 9.71477 19.6686L10.2853 17.7517C9.88681 17.6331 9.50557 17.4741 9.14623 17.2794L8.19337 19.0378ZM8.46447 19.7782L9.3769 18.8657L7.96269 17.4515L7.05026 18.3639L8.46447 19.7782ZM5.63604 19.7782C6.41709 20.5592 7.68342 20.5592 8.46447 19.7781L7.05026 18.3639L5.63604 19.7782ZM4.22183 18.3639L5.63604 19.7782L7.05026 18.3639L5.63604 16.9497L4.22183 18.3639ZM4.22183 15.5355C3.44078 16.3166 3.44078 17.5829 4.22183 18.3639L5.63604 16.9497V16.9497L4.22183 15.5355ZM5.13427 14.6231L4.22183 15.5355L5.63604 16.9497L6.54849 16.0373L5.13427 14.6231ZM4.33144 14.2852C4.48996 14.8179 4.70234 15.3271 4.96217 15.8066L6.7206 14.8537C6.52589 14.4944 6.36693 14.1132 6.24835 13.7147L4.33144 14.2852ZM5.28989 13H4V15H5.28989V13ZM4 13H4H2C2 14.1046 2.89543 15 4 15V13ZM4 13V11H2V13H4ZM4 11V9C2.89543 9 2 9.89543 2 11H4ZM4 11H5.28989V9H4V11ZM4.96217 8.1934C4.70235 8.67288 4.48996 9.18213 4.33144 9.71475L6.24835 10.2852C6.36693 9.88681 6.52589 9.50558 6.7206 9.14625L4.96217 8.1934ZM4.22183 8.46449L5.13428 9.37693L6.54849 7.96272L5.63605 7.05027L4.22183 8.46449ZM4.22183 5.63606C3.44078 6.41711 3.44079 7.68344 4.22183 8.46449L5.63605 7.05027L5.63605 7.05027L4.22183 5.63606ZM5.63605 4.22185L4.22183 5.63606L5.63605 7.05027L7.05026 5.63606L5.63605 4.22185ZM8.46447 4.22185C7.68343 3.4408 6.4171 3.4408 5.63605 4.22185L7.05026 5.63606V5.63606L8.46447 4.22185ZM9.37691 5.13428L8.46447 4.22185L7.05026 5.63606L7.9627 6.54849L9.37691 5.13428ZM9.71477 4.33143C9.18213 4.48995 8.67287 4.70234 8.19337 4.96218L9.14623 6.7206C9.50557 6.52588 9.88681 6.36692 10.2853 6.24833L9.71477 4.33143ZM9.00002 4V5.28988H11V4H9.00002Z" fill="currentColor"/>
    <circle cx="12" cy="12" r="3" stroke="currentColor" stroke-width="2" stroke-linecap="round" stroke-linejoin="round"/>
  </symbol>
  <symbol id="messages" viewBox="0 0 24 24" fill="none" stroke="currentColor" stroke-width="2" stroke-linecap="round" stroke-linejoin="round">
    <path d="M8 11H8.01M12 11H12.01M16 11H16.01M21 20L17.6757 18.3378C17.4237 18.2118 17.2977 18.1488 17.1656 18.1044C17.0484 18.065 16.9277 18.0365 16.8052 18.0193C16.6672 18 16.5263 18 16.2446 18H6.2C5.07989 18 4.51984 18 4.09202 17.782C3.71569 17.5903 3.40973 17.2843 3.21799 16.908C3 16.4802 3 15.9201 3 14.8V7.2C3 6.07989 3 5.51984 3.21799 5.09202C3.40973 4.71569 3.71569 4.40973 4.09202 4.21799C4.51984 4 5.0799 4 6.2 4H17.8C18.9201 4 19.4802 4 19.908 4.21799C20.2843 4.40973 20.5903 4.71569 20.782 5.09202C21 5.51984 21 6.0799 21 7.2V20Z"/>
  </symbol>
  <symbol id="orders" viewBox="0 0 24 24" fill="none" stroke="currentColor" stroke-width="2" stroke-linecap="round" stroke-linejoin="round">
    <path d="M8 5.00005C7.01165 5.00082 6.49359 5.01338 6.09202 5.21799C5.71569 5.40973 5.40973 5.71569 5.21799 6.09202C5 6.51984 5 7.07989 5 8.2V17.8C5 18.9201 5 19.4802 5.21799 19.908C5.40973 20.2843 5.71569 20.5903 6.09202 20.782C6.51984 21 7.07989 21 8.2 21H15.8C16.9201 21 17.4802 21 17.908 20.782C18.2843 20.5903 18.5903 20.2843 18.782 19.908C19 19.4802 19 18.9201 19 17.8V8.2C19 7.07989 19 6.51984 18.782 6.09202C18.5903 5.71569 18.2843 5.40973 17.908 5.21799C17.5064 5.01338 16.9884 5.00082 16 5.00005M8 5.00005V7H16V5.00005M8 5.00005V4.70711C8 4.25435 8.17986 3.82014 8.5 3.5C8.82014 3.17986 9.25435 3 9.70711 3H14.2929C14.7456 3 15.1799 3.17986 15.5 3.5C15.8201 3.82014 16 4.25435 16 4.70711V5.00005M12 15H9M15 11H9"/>
  </symbol>
  <symbol id="profile" viewBox="0 0 24 24" fill="none" stroke="currentColor" stroke-width="1.5" stroke-linecap="round" stroke-linejoin="round">
    <path d="M12.1207 12.78C12.0507 12.77 11.9607 12.77 11.8807 12.78C10.1207 12.72 8.7207 11.28 8.7207 9.50998C8.7207 7.69998 10.1807 6.22998 12.0007 6.22998C13.8107 6.22998 15.2807 7.69998 15.2807 9.50998C15.2707 11.28 13.8807 12.72 12.1207 12.78Z" stroke="currentColor" stroke-width="1.5" stroke-linecap="round" stroke-linejoin="round"/><path opacity="0.34" d="M18.7398 19.3801C16.9598 21.0101 14.5998 22.0001 11.9998 22.0001C9.39977 22.0001 7.03977 21.0101 5.25977 19.3801C5.35977 18.4401 5.95977 17.5201 7.02977 16.8001C9.76977 14.9801 14.2498 14.9801 16.9698 16.8001C18.0398 17.5201 18.6398 18.4401 18.7398 19.3801Z"/>
    <path d="M12 22C17.5228 22 22 17.5228 22 12C22 6.47715 17.5228 2 12 2C6.47715 2 2 6.47715 2 12C2 17.5228 6.47715 22 12 22Z"/>
  </symbol>
</svg>
